<?xml version="1.0" encoding="UTF-8" standalone="no"?><svg xmlns="http://www.w3.org/2000/svg" xmlns:xlink="http://www.w3.org/1999/xlink" contentScriptType="application/ecmascript" contentStyleType="text/css" height="340px" preserveAspectRatio="none" style="width:552px;height:340px;" version="1.1" viewBox="0 0 552 340" width="552px" zoomAndPan="magnify"><defs><filter height="300%" id="f16a4shbkw8wjl" width="300%" x="-1" y="-1"><feGaussianBlur result="blurOut" stdDeviation="2.0"/><feColorMatrix in="blurOut" result="blurOut2" type="matrix" values="0 0 0 0 0 0 0 0 0 0 0 0 0 0 0 0 0 0 .4 0"/><feOffset dx="4.0" dy="4.0" in="blurOut2" result="blurOut3"/><feBlend in="SourceGraphic" in2="blurOut3" mode="normal"/></filter></defs><g><!--MD5=[2bfe0191b62a651585c6d39e50c16673]
cluster Database server--><rect fill="#FFFFFF" filter="url(#f16a4shbkw8wjl)" height="312.5" style="stroke: #000000; stroke-width: 1.5;" width="440" x="101.5" y="16.5"/><path d="M241.5,17.5 L241.5,25.7969 L231.5,35.7969 L101.5,35.7969 " fill="none" style="stroke: #000000; stroke-width: 1.5;"/><text fill="#000000" font-family="sans-serif" font-size="14" font-weight="bold" lengthAdjust="spacingAndGlyphs" textLength="130" x="104.5" y="30.4951">Database server</text><!--MD5=[e8f3788ad7b97e8de68b4194558bc2a1]
cluster db--><path d="M320.5,245 C320.5,235 408,235 408,235 C408,235 495.5,235 495.5,245 L495.5,311 C495.5,321 408,321 408,321 C408,321 320.5,321 320.5,311 L320.5,245 " fill="#FFFFFF" filter="url(#f16a4shbkw8wjl)" style="stroke: #000000; stroke-width: 1.5;"/><path d="M320.5,245 C320.5,255 408,255 408,255 C408,255 495.5,255 495.5,245 " fill="none" style="stroke: #000000; stroke-width: 1.5;"/><text fill="#000000" font-family="sans-serif" font-size="14" font-weight="bold" lengthAdjust="spacingAndGlyphs" textLength="159" x="328.5" y="269.9951">./data/postgres/data</text><!--MD5=[7854ce3fc07382973a3b4c9e23a1f497]
cluster dockernet--><rect fill="#FFFFFF" filter="url(#f16a4shbkw8wjl)" height="81" style="stroke: #000000; stroke-width: 1.5;" width="269" x="264.5" y="43.5"/><path d="M427.5,44.5 L427.5,52.7969 L417.5,62.7969 L264.5,62.7969 " fill="none" style="stroke: #000000; stroke-width: 1.5;"/><text fill="#000000" font-family="sans-serif" font-size="14" font-weight="bold" lengthAdjust="spacingAndGlyphs" textLength="153" x="267.5" y="57.4951">Docker db-network</text><!--MD5=[fb1239b090e799ef2ed2bb62c488a4ee]
entity Docker--><polygon fill="#F0F8FF" filter="url(#f16a4shbkw8wjl)" points="109.5,80.5,119.5,70.5,199.5,70.5,199.5,106.7969,189.5,116.7969,109.5,116.7969,109.5,80.5" style="stroke: #0000FF; stroke-width: 1.0; stroke-dasharray: 1.0,3.0;"/><line style="stroke: #0000FF; stroke-width: 1.0; stroke-dasharray: 1.0,3.0;" x1="189.5" x2="198.5" y1="80.5" y2="71.5"/><line style="stroke: #0000FF; stroke-width: 1.0; stroke-dasharray: 1.0,3.0;" x1="109.5" x2="189.5" y1="80.5" y2="80.5"/><line style="stroke: #0000FF; stroke-width: 1.0; stroke-dasharray: 1.0,3.0;" x1="189.5" x2="189.5" y1="80.5" y2="116.7969"/><text fill="#0000FF" font-family="sans-serif" font-size="14" lengthAdjust="spacingAndGlyphs" textLength="50" x="124.5" y="103.4951">Docker</text><!--MD5=[7738ae4e309240ee5bb913c966e16783]
entity MiniTwit--><rect fill="#FEFECE" filter="url(#f16a4shbkw8wjl)" height="36.2969" rx="35" ry="35" style="stroke: #000000; stroke-width: 1.5;" width="75" x="352" y="277"/><text fill="#000000" font-family="sans-serif" font-size="14" lengthAdjust="spacingAndGlyphs" textLength="55" x="362" y="299.9951">MiniTwit</text><!--MD5=[b7709df717efd9e6df0e9843c5de81db]
entity Nginx--><polygon fill="#FEFECE" filter="url(#f16a4shbkw8wjl)" points="272.5,80.5,282.5,70.5,350.5,70.5,350.5,106.7969,340.5,116.7969,272.5,116.7969,272.5,80.5" style="stroke: #000000; stroke-width: 1.5;"/><line style="stroke: #000000; stroke-width: 1.5;" x1="340.5" x2="349.5" y1="80.5" y2="71.5"/><line style="stroke: #000000; stroke-width: 1.5;" x1="272.5" x2="340.5" y1="80.5" y2="80.5"/><line style="stroke: #000000; stroke-width: 1.5;" x1="340.5" x2="340.5" y1="80.5" y2="116.7969"/><text fill="#000000" font-family="sans-serif" font-size="14" lengthAdjust="spacingAndGlyphs" textLength="38" x="287.5" y="103.4951">Nginx</text><!--MD5=[7fbd20eab0f047d95d8cf961cd333b40]
entity Postgres--><polygon fill="#FEFECE" filter="url(#f16a4shbkw8wjl)" points="423.5,80.5,433.5,70.5,525.5,70.5,525.5,106.7969,515.5,116.7969,423.5,116.7969,423.5,80.5" style="stroke: #000000; stroke-width: 1.5;"/><line style="stroke: #000000; stroke-width: 1.5;" x1="515.5" x2="524.5" y1="80.5" y2="71.5"/><line style="stroke: #000000; stroke-width: 1.5;" x1="423.5" x2="515.5" y1="80.5" y2="80.5"/><line style="stroke: #000000; stroke-width: 1.5;" x1="515.5" x2="515.5" y1="80.5" y2="116.7969"/><text fill="#000000" font-family="sans-serif" font-size="14" lengthAdjust="spacingAndGlyphs" textLength="62" x="438.5" y="103.4951">Postgres</text><!--MD5=[f83ae91a690dfc657e1c5fbbd818f13d]
entity a--><ellipse cx="21.5" cy="62.5" fill="#FEFECE" filter="url(#f16a4shbkw8wjl)" rx="8" ry="8" style="stroke: #A80036; stroke-width: 1.5;"/><path d="M21.5,70.5 L21.5,97.5 M8.5,78.5 L34.5,78.5 M21.5,97.5 L8.5,112.5 M21.5,97.5 L34.5,112.5 " fill="none" filter="url(#f16a4shbkw8wjl)" style="stroke: #A80036; stroke-width: 1.5;"/><text fill="#000000" font-family="sans-serif" font-size="14" lengthAdjust="spacingAndGlyphs" textLength="31" x="6" y="130.9951">alice</text><!--MD5=[f22868d95b2ddc1b3d5fa39279155bfe]
link a to Docker--><path d="M37.0171,93.5 C53.5221,93.5 80.4988,93.5 104.4416,93.5 " fill="none" id="a-&gt;Docker" style="stroke: #A80036; stroke-width: 1.0;"/><polygon fill="#A80036" points="109.4998,93.5,100.4998,89.5,104.4998,93.5,100.4998,97.5,109.4998,93.5" style="stroke: #A80036; stroke-width: 1.0;"/><text fill="#000000" font-family="sans-serif" font-size="13" lengthAdjust="spacingAndGlyphs" textLength="36" x="55.25" y="86.5669">:5432</text><!--MD5=[63c91d84c81b1a4a2a11c7d312d6534b]
link Docker to Nginx--><path d="M199.9109,93.5 C221.0332,93.5 246.0678,93.5 267.0671,93.5 " fill="none" id="Docker-&gt;Nginx" style="stroke: #A80036; stroke-width: 1.0;"/><polygon fill="#A80036" points="272.3141,93.5,263.3141,89.5,267.3141,93.5,263.3141,97.5,272.3141,93.5" style="stroke: #A80036; stroke-width: 1.0;"/><text fill="#000000" font-family="sans-serif" font-size="13" lengthAdjust="spacingAndGlyphs" textLength="36" x="218" y="86.5669">:5432</text><!--MD5=[a7c1edc9403c4830e4692b09c38e66d6]
link Nginx to Postgres--><path d="M350.5426,93.5 C370.8568,93.5 396.0537,93.5 418.4144,93.5 " fill="none" id="Nginx-&gt;Postgres" style="stroke: #A80036; stroke-width: 1.0;"/><polygon fill="#A80036" points="423.4358,93.5,414.4358,89.5,418.4358,93.5,414.4358,97.5,423.4358,93.5" style="stroke: #A80036; stroke-width: 1.0;"/><text fill="#000000" font-family="sans-serif" font-size="13" lengthAdjust="spacingAndGlyphs" textLength="36" x="369" y="86.5669">:5432</text><!--MD5=[092d73527819b1e10ca05d2b56cb54f5]
link Postgres to db--><path d="M474.5,116.6146 C474.5,142.2514 474.5,184.9052 474.5,222.0759 C474.5,224.399 474.5,226.7008 474.5,228.9756 C474.5,230.113 474.5,231.2437 474.5,232.367 C474.5,232.9286 474.5,233.4884 474.5,234.0463 C474.5,234.3252 474.5,234.6036 474.5,234.8816 " fill="none" id="Postgres-db" style="stroke: #A80036; stroke-width: 1.0;"/><!--MD5=[58b96e94a365d50e1ecca71f43f44e67]
@startuml deployment
actor alice as a
frame "Database server" {

  node  Docker #aliceblue;line:blue;line.dotted;text:blue

      database ./data/postgres/data as db {
      storage MiniTwit
    }

  frame "Docker db-network" as dockernet  {
    node Nginx
    node Postgres

}



a -> Docker : ":5432"
Docker-> Nginx : ":5432"
Nginx -> Postgres : ":5432"
Postgres - - db

}
@enduml

PlantUML version 1.2020.06(Sun Apr 05 12:38:32 GMT 2020)
(GPL source distribution)
Java Runtime: OpenJDK Runtime Environment
JVM: OpenJDK 64-Bit Server VM
Java Version: 14-ea+33
Operating System: Linux
Default Encoding: UTF-8
Language: en
Country: US
--></g></svg>